<svg width="272" height="96" viewBox="0 0 272 96" fill="none" xmlns="http://www.w3.org/2000/svg">
<rect width="272" height="96" rx="15" fill="#E6E6EE"/>
<mask id="mask0_204_133" style="mask-type:alpha" maskUnits="userSpaceOnUse" x="0" y="0" width="272" height="96">
<rect width="272" height="96" rx="15" fill="#E6E6EE"/>
</mask>
<g mask="url(#mask0_204_133)">
<path d="M73.8583 83.9753L73.8583 96.3947H56.4712L73.8583 83.9753Z" fill="#B5DEDA"/>
<path d="M73.858 83.9753L73.858 96.3947H91.2451L73.858 83.9753Z" fill="#AFCBCC"/>
<path d="M0.335483 78L0.335479 96.3806H-25L0.335483 78Z" fill="#D6CBE9"/>
<path d="M0.335415 78L0.335419 96.3806H25.6709L0.335415 78Z" fill="#BCBDC2"/>
<path d="M137.445 81.9619L137.445 96.3684H120.058L137.445 81.9619Z" fill="#ABE3D6"/>
<path d="M137.445 81.9619L137.445 96.3684H154.833L137.445 81.9619Z" fill="#D8E6E9"/>
<path d="M199.045 81.9619L199.045 96.3684H181.658L199.045 81.9619Z" fill="#BDDDDC"/>
<path d="M199.045 81.9619L199.045 96.3684H216.432L199.045 81.9619Z" fill="#ADBDBC"/>
<path d="M265.613 81.9619L265.613 96.3684H248.226L265.613 81.9619Z" fill="#D6CBE9"/>
<path d="M265.613 81.9619L265.613 96.3684H283L265.613 81.9619Z" fill="#DFDAEE"/>
<path d="M223.884 81.9619L223.884 96.3684H206.497L223.884 81.9619Z" fill="#D6CBE9"/>
<path d="M223.884 81.9619L223.884 96.3684H241.271L223.884 81.9619Z" fill="#DFDAEE"/>
<path d="M42.5612 81.5072L42.5612 96.4104H15.7354L42.5612 81.5072Z" fill="#D6CBE9"/>
<path d="M42.5609 81.5072L42.5609 96.4104H69.3867L42.5609 81.5072Z" fill="#DFDAEE"/>
<path d="M106.149 81.5072L106.149 96.4104H79.3228L106.149 81.5072Z" fill="#EDCEC9"/>
<path d="M106.148 81.5072L106.148 96.4104H132.974L106.148 81.5072Z" fill="#EBBAB3"/>
<path d="M172.716 81.5072L172.716 96.4104H145.891L172.716 81.5072Z" fill="#C1C6C9"/>
<path d="M172.716 81.5072L172.716 96.4104H199.542L172.716 81.5072Z" fill="#BCBDC1"/>
<path d="M248.226 81.5072L248.226 96.4104H221.4L248.226 81.5072Z" fill="#ADBDBC"/>
<path d="M248.226 81.5072L248.226 96.4104H275.052L248.226 81.5072Z" fill="#BDDDDC"/>
</g>
</svg>
